<svg width="70" height="70" viewBox="0 0 70 70" fill="none" xmlns="http://www.w3.org/2000/svg">
<path d="M52.3271 19.2329C49.1403 17.7365 45.7229 16.6341 42.1498 16.0026C42.0847 15.9905 42.0197 16.0209 41.9862 16.0818C41.5467 16.8818 41.0599 17.9253 40.7189 18.7456C36.8758 18.1568 33.0525 18.1568 29.2882 18.7456C28.9472 17.9071 28.4427 16.8818 28.0012 16.0818C27.9677 16.0229 27.9027 15.9925 27.8376 16.0026C24.2665 16.6321 20.8491 17.7345 17.6603 19.2329C17.6327 19.2451 17.609 19.2654 17.5933 19.2918C11.1112 29.2017 9.33552 38.8681 10.2066 48.4147C10.2106 48.4614 10.2362 48.5061 10.2717 48.5345C14.5484 51.7484 18.6911 53.6996 22.7568 54.9929C22.8219 55.0132 22.8908 54.9889 22.9323 54.934C23.894 53.59 24.7513 52.1728 25.4864 50.6825C25.5298 50.5953 25.4884 50.4917 25.3997 50.4572C24.0399 49.9293 22.745 49.2857 21.4994 48.5548C21.4009 48.4959 21.393 48.3517 21.4837 48.2827C21.7458 48.0817 22.008 47.8726 22.2582 47.6614C22.3035 47.6229 22.3666 47.6147 22.4199 47.6391C30.6027 51.4622 39.4615 51.4622 47.5478 47.6391C47.6011 47.6127 47.6642 47.6208 47.7114 47.6594C47.9618 47.8705 48.2239 48.0817 48.488 48.2827C48.5786 48.3517 48.5727 48.4959 48.4742 48.5548C47.2286 49.2999 45.9337 49.9293 44.5719 50.4552C44.4832 50.4897 44.4438 50.5953 44.4872 50.6825C45.238 52.1707 46.0954 53.5879 47.0394 54.932C47.0788 54.9889 47.1497 55.0132 47.2148 54.9929C51.3003 53.6996 55.443 51.7484 59.7196 48.5345C59.7571 48.5061 59.7808 48.4634 59.7847 48.4167C60.8273 37.3799 58.0385 27.7927 52.3921 19.2938C52.3783 19.2654 52.3547 19.2451 52.3271 19.2329ZM26.7084 42.6018C24.2448 42.6018 22.2149 40.2873 22.2149 37.4449C22.2149 34.6024 24.2054 32.2879 26.7084 32.2879C29.231 32.2879 31.2413 34.6227 31.2018 37.4449C31.2018 40.2873 29.2113 42.6018 26.7084 42.6018ZM43.3224 42.6018C40.8589 42.6018 38.8289 40.2873 38.8289 37.4449C38.8289 34.6024 40.8194 32.2879 43.3224 32.2879C45.8451 32.2879 47.8553 34.6227 47.8159 37.4449C47.8159 40.2873 45.8451 42.6018 43.3224 42.6018Z" fill="black"/>
</svg>
