<svg width="70" height="70" viewBox="0 0 70 70" fill="none" xmlns="http://www.w3.org/2000/svg">
<path fill-rule="evenodd" clip-rule="evenodd" d="M35.0207 10C21.1849 10 10 21.2291 10 35.1211C10 46.2257 17.1665 55.6254 27.1084 58.9523C28.3514 59.2024 28.8067 58.4118 28.8067 57.7467C28.8067 57.1643 28.7658 55.1681 28.7658 53.0882C21.8056 54.5857 20.3562 50.0936 20.3562 50.0936C19.2377 47.1822 17.5804 46.4339 17.5804 46.4339C15.3023 44.895 17.7463 44.895 17.7463 44.895C20.2733 45.0614 21.5992 47.4736 21.5992 47.4736C23.8358 51.2997 27.4398 50.2186 28.8897 49.553C29.0966 47.9309 29.7599 46.808 30.4641 46.1843C24.9128 45.6019 19.0723 43.4393 19.0723 33.7899C19.0723 31.0449 20.0658 28.7991 21.6402 27.0524C21.3918 26.4287 20.5217 23.8496 21.8891 20.3977C21.8891 20.3977 24.0017 19.7321 28.7653 22.9763C30.8047 22.4264 32.9079 22.1466 35.0207 22.1443C37.1333 22.1443 39.2869 22.4357 41.2756 22.9763C46.0396 19.7321 48.1523 20.3977 48.1523 20.3977C49.5197 23.8496 48.6491 26.4287 48.4007 27.0524C50.0165 28.7991 50.9691 31.0449 50.9691 33.7899C50.9691 43.4393 45.1285 45.5601 39.5358 46.1843C40.4475 46.9744 41.2341 48.4715 41.2341 50.8424C41.2341 54.2111 41.1931 56.9148 41.1931 57.7462C41.1931 58.4118 41.649 59.2024 42.8914 58.9528C52.8333 55.6249 59.9999 46.2257 59.9999 35.1211C60.0409 21.2291 48.815 10 35.0207 10Z" fill="black"/>
</svg>
